<svg width="22" height="13" viewBox="0 0 22 13" fill="none" xmlns="http://www.w3.org/2000/svg">
<path d="M20.5035 12.381H18.222C17.3588 12.381 17.0992 11.682 15.5511 10.1339C14.2 8.8313 13.6292 8.6686 13.2868 8.6686C12.8145 8.6686 12.6847 8.7984 12.6847 9.4505V11.5021C12.6847 12.0573 12.5049 12.3825 11.0553 12.3825C9.6485 12.288 8.28422 11.8606 7.07493 11.1355C5.86564 10.4104 4.84592 9.4084 4.09975 8.212C2.32828 6.0071 1.0957 3.41934 0.5 0.654421C0.5 0.311961 0.62979 0.00234131 1.28187 0.00234131H3.56182C4.14822 0.00234131 4.35933 0.263492 4.5892 0.865532C5.69633 4.1244 7.58534 6.9579 8.35158 6.9579C8.64556 6.9579 8.77379 6.8281 8.77379 6.0947V2.7389C8.67684 1.20799 7.86369 1.0782 7.86369 0.524632C7.87413 0.378622 7.94104 0.242431 8.05022 0.144921C8.1594 0.0474214 8.30227 -0.00371869 8.44853 0.00234131H12.0326C12.5221 0.00234131 12.6847 0.246291 12.6847 0.832691V5.3613C12.6847 5.8508 12.8958 6.0134 13.0428 6.0134C13.3368 6.0134 13.5635 5.8508 14.1015 5.3128C15.2569 3.90381 16.2009 2.33401 16.9037 0.652862C16.9756 0.450922 17.1115 0.278042 17.2908 0.160582C17.4701 0.0431316 17.6829 -0.0124487 17.8967 0.00234131H20.1782C20.8616 0.00234131 21.007 0.344801 20.8616 0.832691C20.032 2.6911 19.0055 4.4552 17.7997 6.0947C17.5542 6.47 17.4557 6.6655 17.7997 7.1049C18.0265 7.4473 18.8256 8.1151 19.3635 8.7499C20.1452 9.5297 20.7944 10.4319 21.2853 11.4208C21.4808 12.0557 21.154 12.381 20.5035 12.381Z" fill="white"/>
</svg>
