<svg width="22" height="16" viewBox="0 0 22 16" fill="none" xmlns="http://www.w3.org/2000/svg">
<path fill-rule="evenodd" clip-rule="evenodd" d="M5.989 0.890552C9.32472 0.629582 12.6756 0.629582 16.0113 0.890552L18.252 1.06585C19.5001 1.16349 20.5211 2.09889 20.7274 3.33366C21.2436 6.42313 21.2436 9.57693 20.7274 12.6664C20.5211 13.9011 19.5001 14.8365 18.252 14.9342L16.0113 15.1095C12.6756 15.3704 9.32472 15.3704 5.989 15.1095L3.7483 14.9342C2.50023 14.8365 1.47921 13.9011 1.2729 12.6664C0.75669 9.57693 0.75669 6.42313 1.2729 3.33366C1.47921 2.09889 2.50023 1.16349 3.7483 1.06585L5.989 0.890552ZM9.00012 10.4701V5.52989C9.00012 5.2967 9.25452 5.15266 9.45442 5.27264L13.5714 7.74283C13.7656 7.85933 13.7656 8.14073 13.5714 8.25723L9.45442 10.7274C9.25452 10.8474 9.00012 10.7033 9.00012 10.4701Z" fill="white"/>
</svg>
